<svg width="24" height="24" viewBox="0 0 24 24" fill="none" xmlns="http://www.w3.org/2000/svg">
<mask id="mask0_1981_1375" style="mask-type:alpha" maskUnits="userSpaceOnUse" x="0" y="0" width="24" height="24">
<rect width="24" height="24" fill="#D9D9D9"/>
</mask>
<g mask="url(#mask0_1981_1375)">
<path d="M3.87539 20.1248V16.9498L8.40039 12.4248L3.82539 7.8248C3.74206 7.7248 3.67139 7.61247 3.61339 7.4878C3.55472 7.36247 3.52539 7.24147 3.52539 7.1248C3.52539 6.99147 3.55472 6.86247 3.61339 6.7378C3.67139 6.61247 3.74206 6.4998 3.82539 6.3998L6.02539 4.2248C6.12539 4.1248 6.23806 4.0498 6.36339 3.9998C6.48806 3.9498 6.61706 3.9248 6.75039 3.9248C6.86706 3.9248 6.98806 3.9498 7.11339 3.9998C7.23806 4.0498 7.35039 4.1248 7.45039 4.2248L12.0504 8.8248L16.5254 4.3498C16.6087 4.26647 16.6964 4.20814 16.7884 4.1748C16.8797 4.14147 16.9837 4.1248 17.1004 4.1248C17.2004 4.1248 17.3004 4.14147 17.4004 4.1748C17.5004 4.20814 17.5921 4.26647 17.6754 4.3498L19.6504 6.3498C19.7337 6.43314 19.7964 6.52047 19.8384 6.6118C19.8797 6.7038 19.9004 6.80814 19.9004 6.9248C19.9004 7.0248 19.8797 7.12047 19.8384 7.2118C19.7964 7.3038 19.7337 7.39147 19.6504 7.4748L15.2004 11.9498L19.8004 16.5498C19.9004 16.6498 19.9714 16.7621 20.0134 16.8868C20.0547 17.0121 20.0754 17.1415 20.0754 17.2748C20.0754 17.3915 20.0547 17.5081 20.0134 17.6248C19.9714 17.7415 19.9004 17.8498 19.8004 17.9498L17.6004 20.1748C17.5004 20.2581 17.3877 20.3291 17.2624 20.3878C17.1377 20.4458 17.0087 20.4748 16.8754 20.4748C16.7587 20.4748 16.6377 20.4458 16.5124 20.3878C16.3877 20.3291 16.2754 20.2581 16.1754 20.1748L11.5504 15.5748L7.02539 20.1248H3.87539ZM9.12539 11.7248L11.3504 9.4998L9.42539 7.5998L8.25039 8.7748L7.55039 8.0498L8.72539 6.8748L6.72539 4.8998L4.50039 7.1248L9.12539 11.7248ZM16.8504 19.4748L19.0754 17.2498L17.1004 15.2498L15.9254 16.4248L15.2004 15.7248L16.4004 14.5498L14.4754 12.6248L12.2504 14.8748L16.8504 19.4748ZM4.87539 19.1248H6.60039L16.3254 9.3748L14.6004 7.6498L4.87539 17.3998V19.1248ZM17.0504 8.6748L18.8004 6.9248L17.0754 5.1998L15.3254 6.9498L17.0504 8.6748Z" fill="#1C1B1F"/>
</g>
</svg>
