<svg width="12" height="12" viewBox="0 0 12 12" fill="none" xmlns="http://www.w3.org/2000/svg">
<mask id="mask0_1952_1721" style="mask-type:alpha" maskUnits="userSpaceOnUse" x="0" y="0" width="12" height="12">
<rect width="12" height="12" fill="#D9D9D9"/>
</mask>
<g mask="url(#mask0_1952_1721)">
<path d="M6 8.8125C6.14167 8.8125 6.2605 8.7625 6.3565 8.6625C6.45217 8.5625 6.5 8.44167 6.5 8.3C6.5 8.15833 6.45217 8.0375 6.3565 7.9375C6.2605 7.8375 6.14167 7.7875 6 7.7875C5.85 7.7875 5.72717 7.8375 5.6315 7.9375C5.5355 8.0375 5.4875 8.15833 5.4875 8.3C5.4875 8.44167 5.5355 8.5625 5.6315 8.6625C5.72717 8.7625 5.85 8.8125 6 8.8125ZM5.6375 7.0125H6.35C6.35 6.77083 6.38333 6.577 6.45 6.431C6.51667 6.28533 6.675 6.0875 6.925 5.8375C7.15 5.62083 7.32083 5.41867 7.4375 5.231C7.55417 5.04367 7.6125 4.825 7.6125 4.575C7.6125 4.14167 7.45833 3.80417 7.15 3.5625C6.84167 3.32083 6.475 3.2 6.05 3.2C5.63333 3.2 5.2875 3.3125 5.0125 3.5375C4.7375 3.7625 4.54167 4.025 4.425 4.325L5.075 4.575C5.13333 4.41667 5.2355 4.25833 5.3815 4.1C5.52717 3.94167 5.74583 3.8625 6.0375 3.8625C6.3375 3.8625 6.55833 3.94367 6.7 4.106C6.84167 4.26867 6.9125 4.44583 6.9125 4.6375C6.9125 4.80417 6.8625 4.95833 6.7625 5.1C6.6625 5.24167 6.5375 5.37917 6.3875 5.5125C6.0625 5.80417 5.85633 6.03967 5.769 6.219C5.68133 6.398 5.6375 6.6625 5.6375 7.0125ZM6 10.75C5.34167 10.75 4.723 10.625 4.144 10.375C3.56467 10.125 3.0625 9.7875 2.6375 9.3625C2.2125 8.9375 1.875 8.43533 1.625 7.856C1.375 7.277 1.25 6.65833 1.25 6C1.25 5.34167 1.375 4.72283 1.625 4.1435C1.875 3.5645 2.2125 3.0625 2.6375 2.6375C3.0625 2.2125 3.56467 1.875 4.144 1.625C4.723 1.375 5.34167 1.25 6 1.25C6.65833 1.25 7.27717 1.375 7.8565 1.625C8.4355 1.875 8.9375 2.2125 9.3625 2.6375C9.7875 3.0625 10.125 3.5645 10.375 4.1435C10.625 4.72283 10.75 5.34167 10.75 6C10.75 6.65833 10.625 7.277 10.375 7.856C10.125 8.43533 9.7875 8.9375 9.3625 9.3625C8.9375 9.7875 8.4355 10.125 7.8565 10.375C7.27717 10.625 6.65833 10.75 6 10.75ZM6 10C7.11667 10 8.0625 9.6125 8.8375 8.8375C9.6125 8.0625 10 7.11667 10 6C10 4.88333 9.6125 3.9375 8.8375 3.1625C8.0625 2.3875 7.11667 2 6 2C4.88333 2 3.9375 2.3875 3.1625 3.1625C2.3875 3.9375 2 4.88333 2 6C2 7.11667 2.3875 8.0625 3.1625 8.8375C3.9375 9.6125 4.88333 10 6 10Z" fill="#1C1B1F"/>
</g>
</svg>
