<svg width="24" height="24" viewBox="0 0 24 24" fill="none" xmlns="http://www.w3.org/2000/svg">
<mask id="mask0_1981_1387" style="mask-type:alpha" maskUnits="userSpaceOnUse" x="0" y="0" width="24" height="24">
<rect width="24" height="24" fill="#D9D9D9"/>
</mask>
<g mask="url(#mask0_1981_1387)">
<path d="M12 11.5C12.4167 11.5 12.7707 11.354 13.062 11.062C13.354 10.7707 13.5 10.4167 13.5 10C13.5 9.58333 13.354 9.22933 13.062 8.938C12.7707 8.646 12.4167 8.5 12 8.5C11.5833 8.5 11.2293 8.646 10.938 8.938C10.646 9.22933 10.5 9.58333 10.5 10C10.5 10.4167 10.646 10.7707 10.938 11.062C11.2293 11.354 11.5833 11.5 12 11.5ZM12 20.25C14.0833 18.4333 15.6873 16.6167 16.812 14.8C17.9373 12.9833 18.5 11.45 18.5 10.2C18.5 8.23333 17.871 6.625 16.613 5.375C15.3543 4.125 13.8167 3.5 12 3.5C10.1833 3.5 8.646 4.125 7.388 5.375C6.12933 6.625 5.5 8.23333 5.5 10.2C5.5 11.45 6.06267 12.9833 7.188 14.8C8.31267 16.6167 9.91667 18.4333 12 20.25ZM12 21.625C9.46667 19.375 7.58333 17.2917 6.35 15.375C5.11667 13.4583 4.5 11.7333 4.5 10.2C4.5 7.85 5.25433 5.97933 6.763 4.588C8.271 3.196 10.0167 2.5 12 2.5C13.9833 2.5 15.7293 3.196 17.238 4.588C18.746 5.97933 19.5 7.85 19.5 10.2C19.5 11.7333 18.8833 13.4583 17.65 15.375C16.4167 17.2917 14.5333 19.375 12 21.625Z" fill="#1C1B1F"/>
</g>
</svg>
