<svg width="24" height="24" viewBox="0 0 24 24" fill="none" xmlns="http://www.w3.org/2000/svg">
<mask id="mask0_1981_1381" style="mask-type:alpha" maskUnits="userSpaceOnUse" x="0" y="0" width="24" height="24">
<rect width="24" height="24" fill="#D9D9D9"/>
</mask>
<g mask="url(#mask0_1981_1381)">
<path d="M4 16.5748V18.3748C4 18.5415 4.06267 18.6871 4.188 18.8118C4.31267 18.9371 4.45833 18.9998 4.625 18.9998H19.375C19.5417 18.9998 19.6873 18.9371 19.812 18.8118C19.9373 18.6871 20 18.5415 20 18.3748V16.5748H4ZM4.625 7.0498H7.95C7.86667 6.8998 7.796 6.74147 7.738 6.5748C7.67933 6.40814 7.65 6.23314 7.65 6.0498C7.65 5.48314 7.84167 5.00814 8.225 4.6248C8.60833 4.24147 9.08333 4.0498 9.65 4.0498C9.98333 4.0498 10.296 4.13714 10.588 4.3118C10.8793 4.48714 11.1333 4.70814 11.35 4.9748L11.95 5.7998L12.575 4.9748C12.7917 4.69147 13.046 4.46647 13.338 4.2998C13.6293 4.13314 13.9417 4.0498 14.275 4.0498C14.8417 4.0498 15.3167 4.24147 15.7 4.6248C16.0833 5.00814 16.275 5.48314 16.275 6.0498C16.275 6.23314 16.25 6.40814 16.2 6.5748C16.15 6.74147 16.075 6.8998 15.975 7.0498H19.375C19.8417 7.0498 20.2293 7.2038 20.538 7.5118C20.846 7.82047 21 8.1998 21 8.6498V18.3748C21 18.8415 20.846 19.2291 20.538 19.5378C20.2293 19.8458 19.8417 19.9998 19.375 19.9998H4.625C4.15833 19.9998 3.771 19.8458 3.463 19.5378C3.15433 19.2291 3 18.8415 3 18.3748V8.6498C3 8.1998 3.15433 7.82047 3.463 7.5118C3.771 7.2038 4.15833 7.0498 4.625 7.0498ZM4 14.4248H20V8.6498C20 8.4998 19.9373 8.36214 19.812 8.2368C19.6873 8.11214 19.5417 8.0498 19.375 8.0498H13.55L15.55 10.7748L14.75 11.3498L11.95 7.5498L9.175 11.3498L8.375 10.7748L10.35 8.0498H4.625C4.45833 8.0498 4.31267 8.11214 4.188 8.2368C4.06267 8.36214 4 8.4998 4 8.6498V14.4248ZM9.65 7.0498C9.93333 7.0498 10.171 6.9538 10.363 6.7618C10.5543 6.57047 10.65 6.33314 10.65 6.0498C10.65 5.76647 10.5543 5.52914 10.363 5.3378C10.171 5.1458 9.93333 5.0498 9.65 5.0498C9.36667 5.0498 9.12933 5.1458 8.938 5.3378C8.746 5.52914 8.65 5.76647 8.65 6.0498C8.65 6.33314 8.746 6.57047 8.938 6.7618C9.12933 6.9538 9.36667 7.0498 9.65 7.0498ZM14.275 7.0498C14.5583 7.0498 14.796 6.9538 14.988 6.7618C15.1793 6.57047 15.275 6.33314 15.275 6.0498C15.275 5.76647 15.1793 5.52914 14.988 5.3378C14.796 5.1458 14.5583 5.0498 14.275 5.0498C13.9917 5.0498 13.754 5.1458 13.562 5.3378C13.3707 5.52914 13.275 5.76647 13.275 6.0498C13.275 6.33314 13.3707 6.57047 13.562 6.7618C13.754 6.9538 13.9917 7.0498 14.275 7.0498Z" fill="#1C1B1F"/>
</g>
</svg>
