<svg width="24" height="24" viewBox="0 0 24 24" fill="none" xmlns="http://www.w3.org/2000/svg">
<mask id="mask0_1981_1369" style="mask-type:alpha" maskUnits="userSpaceOnUse" x="0" y="0" width="24" height="24">
<rect width="24" height="24" fill="#D9D9D9"/>
</mask>
<g mask="url(#mask0_1981_1369)">
<path d="M4.625 17C4.15833 17 3.771 16.846 3.463 16.538C3.15433 16.2293 3 15.8417 3 15.375V8.625C3 8.15833 3.15433 7.771 3.463 7.463C3.771 7.15433 4.15833 7 4.625 7H19.375C19.8417 7 20.2293 7.15433 20.538 7.463C20.846 7.771 21 8.15833 21 8.625V15.375C21 15.8417 20.846 16.2293 20.538 16.538C20.2293 16.846 19.8417 17 19.375 17H4.625ZM4.625 16H19.375C19.5417 16 19.6873 15.9373 19.812 15.812C19.9373 15.6873 20 15.5417 20 15.375V8.625C20 8.45833 19.9373 8.31267 19.812 8.188C19.6873 8.06267 19.5417 8 19.375 8H16.5V11.225H15.5V8H12.5V11.225H11.5V8H8.5V11.225H7.5V8H4.625C4.45833 8 4.31267 8.06267 4.188 8.188C4.06267 8.31267 4 8.45833 4 8.625V15.375C4 15.5417 4.06267 15.6873 4.188 15.812C4.31267 15.9373 4.45833 16 4.625 16Z" fill="#1C1B1F"/>
</g>
</svg>
