<svg width="155" height="71" viewBox="0 0 155 71" fill="none" xmlns="http://www.w3.org/2000/svg">
<path fill-rule="evenodd" clip-rule="evenodd" d="M36.6218 66.493C34.894 61.8772 33.2198 57.0549 31.5389 52.3858L30.367 52.7055L24.8823 66.5729C23.9782 68.8775 23.63 69.1439 21.9022 69.357V70.2296H27.7887V69.3703C25.8399 69.1572 25.7127 68.8109 26.1614 67.3722C26.4828 66.2998 26.831 65.2541 27.1994 64.295H32.4765C32.9586 65.5805 33.4073 66.8393 33.702 67.7252C34.1038 68.8774 33.9163 69.1439 32.3224 69.3836V70.2296H39.5349V69.3703C37.8339 69.1705 37.5058 68.8508 36.6218 66.493ZM27.6213 62.9495C28.3713 60.9513 29.0879 58.8466 29.8915 56.7818H29.9451L32.0746 62.9495H27.6213ZM47.7586 53.6713C49.9418 53.9444 49.9953 54.2641 49.4395 56.0025C48.6694 58.4736 47.2028 62.3367 45.7897 66.0334H45.7094C44.4303 62.763 42.4078 57.4279 41.6913 55.3764C41.2895 54.1975 41.3163 53.931 43.2315 53.6846V52.8054H35.778V53.6846C37.4053 53.8444 37.8272 54.1708 38.6308 56.209C39.9032 59.3994 42.2739 65.6204 44.0887 70.5293H45.2004C47.2563 65.001 49.8346 58.6467 50.6315 56.6885C51.703 54.1708 52.1249 53.8777 53.8862 53.6846V52.8054H47.7318L47.7586 53.6713ZM54.6831 53.6713C56.7323 53.8311 56.9734 54.0243 56.9734 56.3022V66.7594C56.9734 69.0373 56.7323 69.2238 54.6831 69.3836V70.2296H62.3242V69.3703C60.275 69.2105 60.0607 69.024 60.0607 66.7461V56.2889C60.0607 54.011 60.275 53.8178 62.3242 53.6579V52.8054H54.6831V53.6713ZM78.0148 66.493C76.287 61.8772 74.6061 57.0549 72.9319 52.3858L71.7533 52.7055L66.2686 66.5729C65.3712 68.8775 65.023 69.1439 63.2885 69.357V70.2296H69.175V69.3703C67.2329 69.1572 67.099 68.8109 67.5477 67.3722C67.8691 66.2998 68.2174 65.2541 68.5924 64.295H73.8896C74.3651 65.5805 74.8204 66.8393 75.1084 67.7252C75.5102 68.8774 75.3227 69.1439 73.7289 69.3836V70.2296H80.9413V69.3703C79.2403 69.1838 78.8921 68.8641 78.0148 66.5062V66.493ZM69.0143 62.9628C69.7576 60.9647 70.4809 58.8599 71.2778 56.7951H71.318L73.4476 62.9628H69.0143ZM105.88 52.4257C100 52.4257 96.6923 56.9283 96.6923 61.624C96.6923 66.7727 100.449 70.6358 105.586 70.6358C110.541 70.6358 114.64 67.119 114.64 61.311C114.681 60.1472 114.483 58.9873 114.06 57.9016C113.637 56.8158 112.996 55.827 112.177 54.9949C111.358 54.1628 110.378 53.5048 109.295 53.0609C108.213 52.617 107.051 52.3964 105.88 52.4124V52.4257ZM106.068 69.5635C102.525 69.5635 100.262 65.7536 100.262 61.0312C100.262 56.3089 102.579 53.4981 105.345 53.4981C108.572 53.4981 110.99 56.6086 110.99 62.077C110.99 67.0658 108.733 69.5635 106.041 69.5635H106.068ZM132.051 66.2332H131.034C131.034 67.2523 130.638 68.7309 130.123 68.7309C129.279 68.7309 128.964 67.2722 128.743 65.6204C128.542 64.1617 127.471 61.7772 126.172 61.7772C127.632 61.7772 129.929 59.6592 129.929 57.3279C129.909 56.5765 129.699 55.8421 129.317 55.1933C128.936 54.5446 128.395 54.0026 127.745 53.618C126.627 53.0185 125.375 52.7987 123.165 52.7987H116.053V53.6513C118.022 53.8378 118.263 54.0576 118.263 56.2556V66.7394C118.263 68.964 118.002 69.2038 115.946 69.3637V70.2296H123.593V69.3703C121.537 69.2105 120.962 68.9707 120.962 66.7461V62.0103H121.912C122.977 62.0103 124.558 62.2368 125.013 63.0094C125.783 64.3815 125.917 65.2008 126.225 67.8983C126.46 69.9498 127.665 70.4427 129.42 70.4427C132.098 70.4427 132.139 66.7327 132.098 66.2532L132.051 66.2332ZM125.569 60.2586C124.899 60.7981 123.426 60.8114 122.221 60.8114H120.975V55.1033C120.975 54.4838 121.028 54.1908 121.216 54.0309C121.404 53.8711 122.14 53.9577 122.857 53.9577C124.538 53.9577 127.143 54.1242 127.143 57.0149C127.142 57.6391 127 58.2552 126.726 58.817C126.453 59.3787 126.055 59.8716 125.562 60.2586H125.569ZM80.6935 52.5789C80.6333 53.971 80.4792 57.6143 80.3721 59.4327H81.2762C81.5976 58.1738 82.8298 53.8445 85.0398 53.8445H86.205V66.7394C86.205 68.964 85.9706 69.1772 83.6536 69.337V70.2296H91.9643V69.3703C89.6472 69.2105 89.4061 68.9973 89.4061 66.7727V53.8644H90.5781C92.788 53.8644 94.0202 58.1938 94.3417 59.4527H95.2457C95.1386 57.6343 94.9779 53.991 94.9243 52.5989L80.6935 52.5789Z" fill="#1D1D1B"/>
<path fill-rule="evenodd" clip-rule="evenodd" d="M154.01 0L116.34 10.284L118.497 6.64728C112.543 10.9301 86.7134 14.3603 86.5259 14.3803H86.238L82.8494 16.6515L86.8675 27.8081L86.4188 22.02L86.2179 20.4614L87.8318 18.6964C90.0886 18.4566 106.308 12.8617 114.847 10.0376L108.378 17.7572L100.288 18.0769L98.674 18.743L107.32 19.9419L100.783 24.5111L93.0151 24.3512L91.8834 25.0173L98.0846 26.5825L89.439 30.2658H85.7558C83.1842 23.2922 80.6662 16.1853 78.1415 9.25827L75.7909 9.92434L67.6342 30.2658H64.5537L55.9148 26.5625L62.116 24.9973L60.9843 24.3313L53.216 24.4911L46.6732 19.9019L55.3188 18.703L53.7048 18.037L45.6151 17.7172L39.1727 10.0376C47.7112 12.8883 63.951 18.4832 66.181 18.6964L67.8016 20.4614L67.594 22.02L67.152 27.8081L71.1701 16.6515L67.7815 14.3803H67.4936C67.3061 14.3803 41.4697 10.9301 35.523 6.64728L37.6793 10.284L0.00976562 0L6.44541 7.4399C5.60161 7.22676 4.75781 7.01362 3.9207 6.77384L14.7629 21.7669L16.5442 21.5405L23.9643 29.9994L26.201 29.1935L33.6345 35.9607L36.052 34.895L45.5749 40.39L46.7401 39.0579L55.2451 43.3007L55.6 42.7545L58.6873 44.453H58.8078V44.5595H70.6478V42.8611C66.7569 42.4348 66.4891 41.7487 67.3931 38.8647C68.0226 36.7666 68.7325 34.7151 69.449 32.8302L73.735 32.7836H80.1037C81.0613 35.3346 81.9721 37.8256 82.5547 39.5774C83.3583 41.8553 82.9833 42.3882 79.7822 42.8677V44.5662H94.2407V44.4796H94.4951L98.3056 42.608L98.7677 43.314L107.313 39.0645L108.485 40.3967L117.967 34.9283L120.385 35.994L127.812 29.2268L130.055 30.0327L137.475 21.5738L139.25 21.8002L150.099 6.80717C149.262 7.03363 148.418 7.24677 147.574 7.47323L154.01 0ZM5.93644 3.37694L38.4026 11.5495L38.9986 12.5619C29.3309 11.7757 19.7252 10.3629 10.2425 8.33244L5.93644 3.37694ZM64.8082 37.3461C63.3616 40.9828 62.6183 42.0618 60.6294 42.5614L59.511 42.528L56.4773 41.449L60.6427 35.0548L59.1025 35.5144L54.6491 40.0969L47.5304 38.0987L53.4705 31.2316L45.8696 37.0397L38.1147 33.9758L49.5796 28.9337L47.738 28.7805L33.9157 32.2907L27.8417 28.594L43.4386 22.9725L25.163 26.0297L19.8056 21.1208L36.2462 19.0294L33.2595 18.7763L16.9996 18.5498L7.65753 9.08509C23.9844 13.2147 36.4538 15.6458 41.3626 16.545L43.6194 20.3548L44.7914 20.1883L52.5664 27.4151L54.3946 26.9489L64.8416 32.9035H66.5895L64.8082 37.3461ZM70.2996 30.1859C71.7929 26.1896 73.2328 22.0666 74.8333 17.9837H74.9404L79.2063 30.1859H70.2996ZM115.59 11.5362L148.05 3.3636L143.744 8.31911C134.261 10.3505 124.655 11.7634 114.987 12.5486L115.59 11.5362ZM136.986 18.5498L120.733 18.7763L117.74 19.0294L134.187 21.1208L128.83 26.0297L110.554 22.9725L126.151 28.594L120.077 32.2907L106.255 28.7805L104.406 28.9337L115.845 33.9625L108.096 37.0264L100.522 31.225L106.456 38.0921L99.3436 40.0903L94.8903 35.5078L93.35 35.0482L97.5087 41.429L94.455 42.5214L92.4459 42.5813C90.4369 42.0818 89.727 40.9295 88.3073 37.1862C87.7626 35.752 87.2246 34.3133 86.6934 32.8701H89.1243L99.5847 26.9355L101.42 27.4018L109.201 20.175L110.373 20.3415L112.63 16.5317C117.519 15.6325 130.008 13.2013 146.335 9.07176L136.986 18.5498Z" fill="#1D1D1B"/>
</svg>
